<region>
sample=\RR1\44.wav
lokey=44
hikey=44
hirand=0.5
pitch_keycenter=44

<region>
sample=\RR2\44.wav
lokey=44
hikey=44
lorand=0.5
pitch_keycenter=44


<region>
sample=\RR1\45.wav
lokey=45
hikey=45
hirand=0.5
pitch_keycenter=45

<region>
sample=\RR2\45.wav
lokey=45
hikey=45
lorand=0.5
pitch_keycenter=45

<region>
sample=\RR1\46.wav
lokey=46
hikey=46
hirand=0.5
pitch_keycenter=46

<region>
sample=\RR2\46.wav
lokey=46
hikey=46
lorand=0.5
pitch_keycenter=46


<region>
sample=\RR1\47.wav
lokey=47
hikey=47
hirand=0.5
pitch_keycenter=47

<region>
sample=\RR2\47.wav
lokey=47
hikey=47
lorand=0.5
pitch_keycenter=47


<region>
sample=\RR1\48.wav
lokey=48
hikey=48
hirand=0.5
pitch_keycenter=48

<region>
sample=\RR2\48.wav
lokey=48
hikey=48
lorand=0.5
pitch_keycenter=48

<region>
sample=\RR1\49.wav
lokey=49
hikey=49
hirand=0.5
pitch_keycenter=49

<region>
sample=\RR2\49.wav
lokey=49
hikey=49
lorand=0.5
pitch_keycenter=49

<region>
sample=\RR1\50.wav
lokey=50
hikey=50
hirand=0.5
pitch_keycenter=50

<region>
sample=\RR2\50.wav
lokey=50
hikey=50
lorand=0.5
pitch_keycenter=50

<region>
sample=\RR1\51.wav
lokey=51
hikey=51
hirand=0.5
pitch_keycenter=51

<region>
sample=\RR2\51.wav
lokey=51
hikey=51
lorand=0.5
pitch_keycenter=51

<region>
sample=\RR1\52.wav
lokey=52
hikey=52
hirand=0.5
pitch_keycenter=52

<region>
sample=\RR2\52.wav
lokey=52
hikey=52
lorand=0.5
pitch_keycenter=52

<region>
sample=\RR1\53.wav
lokey=53
hikey=53
hirand=0.5
pitch_keycenter=53

<region>
sample=\RR2\53.wav
lokey=53
hikey=53
lorand=0.5
pitch_keycenter=53
<region>
sample=\RR1\54.wav
lokey=54
hikey=54
hirand=0.5
pitch_keycenter=54

<region>
sample=\RR2\54.wav
lokey=54
hikey=54
lorand=0.5
pitch_keycenter=54
<region>
sample=\RR1\55.wav
lokey=55
hikey=55
hirand=0.5
pitch_keycenter=55

<region>
sample=\RR2\55.wav
lokey=55
hikey=55
lorand=0.5
pitch_keycenter=55
<region>
sample=\RR1\56.wav
lokey=56
hikey=56
hirand=0.5
pitch_keycenter=56

<region>
sample=\RR2\56.wav
lokey=56
hikey=56
lorand=0.5
pitch_keycenter=56
<region>
sample=\RR1\57.wav
lokey=57
hikey=57
hirand=0.5
pitch_keycenter=57

<region>
sample=\RR2\57.wav
lokey=57
hikey=57
lorand=0.5
pitch_keycenter=57
<region>
sample=\RR1\58.wav
lokey=58
hikey=58
hirand=0.5
pitch_keycenter=58

<region>
sample=\RR2\58.wav
lokey=58
hikey=58
lorand=0.5
pitch_keycenter=58
<region>
sample=\RR1\59.wav
lokey=59
hikey=59
hirand=0.5
pitch_keycenter=59

<region>
sample=\RR2\59.wav
lokey=59
hikey=59
lorand=0.5
pitch_keycenter=59
<region>
sample=\RR1\60.wav
lokey=60
hikey=60
hirand=0.5
pitch_keycenter=60

<region>
sample=\RR2\60.wav
lokey=60
hikey=60
lorand=0.5
pitch_keycenter=60
<region>
sample=\RR1\61.wav
lokey=61
hikey=61
hirand=0.5
pitch_keycenter=61

<region>
sample=\RR2\61.wav
lokey=61
hikey=61
lorand=0.5
pitch_keycenter=61
<region>
sample=\RR1\62.wav
lokey=62
hikey=62
hirand=0.5
pitch_keycenter=62

<region>
sample=\RR2\62.wav
lokey=62
hikey=62
lorand=0.5
pitch_keycenter=62
<region>
sample=\RR1\63.wav
lokey=63
hikey=63
hirand=0.5
pitch_keycenter=63

<region>
sample=\RR2\63.wav
lokey=63
hikey=63
lorand=0.5
pitch_keycenter=63
<region>
sample=\RR1\64.wav
lokey=64
hikey=64
hirand=0.5
pitch_keycenter=64

<region>
sample=\RR2\64.wav
lokey=64
hikey=64
lorand=0.5
pitch_keycenter=64
<region>
sample=\RR1\65.wav
lokey=65
hikey=65
hirand=0.5
pitch_keycenter=65

<region>
sample=\RR2\65.wav
lokey=65
hikey=65
lorand=0.5
pitch_keycenter=65
<region>
sample=\RR1\66.wav
lokey=66
hikey=66
hirand=0.5
pitch_keycenter=66

<region>
sample=\RR2\66.wav
lokey=66
hikey=66
lorand=0.5
pitch_keycenter=66
<region>
sample=\RR1\67.wav
lokey=67
hikey=67
hirand=0.5
pitch_keycenter=67

<region>
sample=\RR2\67.wav
lokey=67
hikey=67
lorand=0.5
pitch_keycenter=67
<region>
sample=\RR1\68.wav
lokey=68
hikey=68
hirand=0.5
pitch_keycenter=68

<region>
sample=\RR2\68.wav
lokey=68
hikey=68
lorand=0.5
pitch_keycenter=68
<region>
sample=\RR1\69.wav
lokey=69
hikey=69
hirand=0.5
pitch_keycenter=69

<region>
sample=\RR2\69.wav
lokey=69
hikey=69
lorand=0.5
pitch_keycenter=69
<region>
sample=\RR1\70.wav
lokey=70
hikey=70
hirand=0.5
pitch_keycenter=70

<region>
sample=\RR2\70.wav
lokey=70
hikey=70
lorand=0.5
pitch_keycenter=70
<region>
sample=\RR1\71.wav
lokey=71
hikey=71
hirand=0.5
pitch_keycenter=71

<region>
sample=\RR2\71.wav
lokey=71
hikey=71
lorand=0.5
pitch_keycenter=71
<region>
sample=\RR1\72.wav
lokey=72
hikey=72
hirand=0.5
pitch_keycenter=72

<region>
sample=\RR2\72.wav
lokey=72
hikey=72
lorand=0.5
pitch_keycenter=72
<region>
sample=\RR1\73.wav
lokey=73
hikey=73
hirand=0.5
pitch_keycenter=73

<region>
sample=\RR2\73.wav
lokey=73
hikey=73
lorand=0.5
pitch_keycenter=73
<region>
sample=\RR1\74.wav
lokey=74
hikey=74
hirand=0.5
pitch_keycenter=74

<region>
sample=\RR2\74.wav
lokey=74
hikey=74
lorand=0.5
pitch_keycenter=74
<region>
sample=\RR1\75.wav
lokey=75
hikey=75
hirand=0.5
pitch_keycenter=75

<region>
sample=\RR2\75.wav
lokey=75
hikey=75
lorand=0.5
pitch_keycenter=75
<region>
sample=\RR1\76.wav
lokey=76
hikey=76
hirand=0.5
pitch_keycenter=76

<region>
sample=\RR2\76.wav
lokey=76
hikey=76
lorand=0.5
pitch_keycenter=76

